<svg width="242" height="241" viewBox="0 0 242 241" fill="none" xmlns="http://www.w3.org/2000/svg">
<path d="M126.472 231.935C188.047 231.935 237.962 182.019 237.962 120.445C237.962 58.8704 188.047 8.95459 126.472 8.95459C64.8979 8.95459 14.9821 58.8704 14.9821 120.445C14.9821 182.019 64.8979 231.935 126.472 231.935Z" fill="#212121"/>
<path d="M178.044 163.283H73.3528V185.283H178.044V163.283Z" fill="white"/>
<path d="M177.16 161.127L177.27 164.112L180.255 163.67L182.687 160.409V157.258H178.265L177.16 161.127Z" fill="#3B82F6"/>
<path d="M79.8752 164.167V51.9587C71.606 51.9587 69.3914 58.8128 69.3176 62.2399C69.2808 96.2157 69.2292 166.555 69.3176 176.107C69.4061 185.658 76.3928 188.599 79.8752 188.875C111.346 188.894 174.562 188.92 175.667 188.875C177.049 188.82 178.597 188.378 180.697 186.72C182.378 185.393 182.724 182.997 182.687 181.966V158.087C182.687 159.414 181.637 161.017 180.642 162.012C179.846 162.808 178.063 163.633 177.27 163.946C176.883 165.199 176.12 168.822 176.165 173.288C176.209 177.754 176.92 182.997 177.27 185.061H79.8752C77.8669 184.49 73.817 181.668 73.6844 174.946C73.5517 168.225 77.7564 164.96 79.8752 164.167Z" fill="#4F46E5"/>
<path d="M79.8752 164.167V51.9587H173.567C179.89 51.9587 182.281 58.039 182.687 61.0791V157.424C182.687 161.979 178.191 163.817 175.944 164.167H79.8752Z" fill="#6366F1"/>
<path d="M172.517 168.037H80.428C80.1227 168.037 79.8752 168.284 79.8752 168.589C79.8752 168.895 80.1227 169.142 80.428 169.142H172.517C172.822 169.142 173.069 168.895 173.069 168.589C173.069 168.284 172.822 168.037 172.517 168.037Z" fill="#94A3B8"/>
<path d="M172.517 180.308H80.428C80.1227 180.308 79.8752 180.555 79.8752 180.861C79.8752 181.166 80.1227 181.413 80.428 181.413H172.517C172.822 181.413 173.069 181.166 173.069 180.861C173.069 180.555 172.822 180.308 172.517 180.308Z" fill="#94A3B8"/>
<path d="M172.517 172.127H79.5436C79.2383 172.127 78.9908 172.375 78.9908 172.68C78.9908 172.985 79.2383 173.233 79.5436 173.233H172.517C172.822 173.233 173.069 172.985 173.069 172.68C173.069 172.375 172.822 172.127 172.517 172.127Z" fill="#94A3B8"/>
<path d="M172.517 176.217H79.5436C79.2383 176.217 78.9908 176.465 78.9908 176.77C78.9908 177.075 79.2383 177.323 79.5436 177.323H172.517C172.822 177.323 173.069 177.075 173.069 176.77C173.069 176.465 172.822 176.217 172.517 176.217Z" fill="#94A3B8"/>
<path d="M99.9954 124.867C103.995 124.867 107.237 121.625 107.237 117.626C107.237 113.627 103.995 110.385 99.9954 110.385C95.9963 110.385 92.7544 113.627 92.7544 117.626C92.7544 121.625 95.9963 124.867 99.9954 124.867Z" fill="#131313" stroke="#1F2937"/>
<path d="M156.155 124.867C160.154 124.867 163.396 121.625 163.396 117.626C163.396 113.627 160.154 110.385 156.155 110.385C152.156 110.385 148.914 113.627 148.914 117.626C148.914 121.625 152.156 124.867 156.155 124.867Z" fill="#131313" stroke="#1F2937"/>
<path d="M114.367 135.203C118.733 128.113 130.327 118.185 141.783 135.203" stroke="#131313" stroke-width="8" stroke-linecap="round"/>
<path d="M205.018 54.3908C210.208 54.3908 214.415 50.1837 214.415 44.994C214.415 39.8043 210.208 35.5972 205.018 35.5972C199.829 35.5972 195.622 39.8043 195.622 44.994C195.622 50.1837 199.829 54.3908 205.018 54.3908Z" fill="#60A5FA"/>
<path d="M178.376 23.6578C181.306 23.6578 183.682 21.282 183.682 18.3514C183.682 15.4207 181.306 13.045 178.376 13.045C175.445 13.045 173.069 15.4207 173.069 18.3514C173.069 21.282 175.445 23.6578 178.376 23.6578Z" fill="#60A5FA"/>
<path d="M31.7858 79.7069C36.7924 79.7069 40.851 75.6483 40.851 70.6417C40.851 65.6352 36.7924 61.5766 31.7858 61.5766C26.7793 61.5766 22.7207 65.6352 22.7207 70.6417C22.7207 75.6483 26.7793 79.7069 31.7858 79.7069Z" fill="#3B82F6"/>
<path d="M56.7702 92.7518C58.5408 92.7518 59.9761 91.3165 59.9761 89.5459C59.9761 87.7753 58.5408 86.3399 56.7702 86.3399C54.9996 86.3399 53.5642 87.7753 53.5642 89.5459C53.5642 91.3165 54.9996 92.7518 56.7702 92.7518Z" fill="#3B82F6"/>
<path d="M5.86171 116.41C8.15128 116.41 10.0073 114.554 10.0073 112.264C10.0073 109.974 8.15128 108.118 5.86171 108.118C3.57213 108.118 1.71606 109.974 1.71606 112.264C1.71606 114.554 3.57213 116.41 5.86171 116.41Z" fill="#6B7280"/>
<path d="M213.31 174.338C217.889 174.338 221.601 170.626 221.601 166.047C221.601 161.468 217.889 157.755 213.31 157.755C208.73 157.755 205.018 161.468 205.018 166.047C205.018 170.626 208.73 174.338 213.31 174.338Z" fill="#EF4444"/>
<path d="M203.782 99.9376L212.681 95.8472L220.254 99.9376L228.711 95.8472L236.284 99.9376" stroke="#F59E0B" stroke-width="8" stroke-linecap="round"/>
<path d="M21.0624 178.428L29.9617 174.338L37.5344 178.428L45.9915 174.338L53.5642 178.428" stroke="#F87171" stroke-width="8" stroke-linecap="round"/>
<path d="M203.782 87.7417L212.681 83.6514L220.254 87.7417L228.711 83.6514L236.284 87.7417" stroke="#F59E0B" stroke-width="8" stroke-linecap="round"/>
</svg>
