<svg width="20" height="20" viewBox="0 0 20 20" fill="none" xmlns="http://www.w3.org/2000/svg">
<path d="M9.95817 15C10.2498 15 10.4964 14.8993 10.6978 14.6979C10.8991 14.4965 10.9998 14.25 10.9998 13.9583C10.9998 13.6667 10.8991 13.4201 10.6978 13.2188C10.4964 13.0174 10.2498 12.9167 9.95817 12.9167C9.6665 12.9167 9.41998 13.0174 9.21859 13.2188C9.0172 13.4201 8.9165 13.6667 8.9165 13.9583C8.9165 14.25 9.0172 14.4965 9.21859 14.6979C9.41998 14.8993 9.6665 15 9.95817 15ZM9.20817 11.7917H10.7498C10.7498 11.3333 10.8019 10.9722 10.9061 10.7083C11.0103 10.4444 11.3054 10.0833 11.7915 9.625C12.1526 9.26389 12.4373 8.92014 12.6457 8.59375C12.854 8.26737 12.9582 7.875 12.9582 7.41667C12.9582 6.63889 12.6734 6.04167 12.104 5.625C11.5346 5.20834 10.8609 5 10.0832 5C9.2915 5 8.64914 5.20834 8.15609 5.625C7.66303 6.04167 7.31928 6.54167 7.12484 7.125L8.49984 7.66667C8.56928 7.41667 8.72553 7.14584 8.96859 6.85417C9.21164 6.5625 9.58317 6.41667 10.0832 6.41667C10.5276 6.41667 10.8609 6.5382 11.0832 6.78125C11.3054 7.02431 11.4165 7.29167 11.4165 7.58334C11.4165 7.86112 11.3332 8.12153 11.1665 8.36459C10.9998 8.60764 10.7915 8.83334 10.5415 9.04167C9.93039 9.58334 9.55539 9.99306 9.4165 10.2708C9.27761 10.5486 9.20817 11.0556 9.20817 11.7917ZM9.99984 18.3333C8.84706 18.3333 7.76373 18.1146 6.74984 17.6771C5.73595 17.2396 4.854 16.6458 4.104 15.8958C3.354 15.1458 2.76025 14.2639 2.32275 13.25C1.88525 12.2361 1.6665 11.1528 1.6665 10C1.6665 8.84723 1.88525 7.76389 2.32275 6.75C2.76025 5.73612 3.354 4.85417 4.104 4.10417C4.854 3.35417 5.73595 2.76042 6.74984 2.32292C7.76373 1.88542 8.84706 1.66667 9.99984 1.66667C11.1526 1.66667 12.2359 1.88542 13.2498 2.32292C14.2637 2.76042 15.1457 3.35417 15.8957 4.10417C16.6457 4.85417 17.2394 5.73612 17.6769 6.75C18.1144 7.76389 18.3332 8.84723 18.3332 10C18.3332 11.1528 18.1144 12.2361 17.6769 13.25C17.2394 14.2639 16.6457 15.1458 15.8957 15.8958C15.1457 16.6458 14.2637 17.2396 13.2498 17.6771C12.2359 18.1146 11.1526 18.3333 9.99984 18.3333ZM9.99984 16.6667C11.8609 16.6667 13.4373 16.0208 14.729 14.7292C16.0207 13.4375 16.6665 11.8611 16.6665 10C16.6665 8.13889 16.0207 6.5625 14.729 5.27084C13.4373 3.97917 11.8609 3.33334 9.99984 3.33334C8.13873 3.33334 6.56234 3.97917 5.27067 5.27084C3.979 6.5625 3.33317 8.13889 3.33317 10C3.33317 11.8611 3.979 13.4375 5.27067 14.7292C6.56234 16.0208 8.13873 16.6667 9.99984 16.6667Z" fill="#7C7C7C"/>
</svg>
